<?xml version="1.0" encoding="UTF-8"?>
<!DOCTYPE svg PUBLIC "-//W3C//DTD SVG 1.1//EN" "http://www.w3.org/Graphics/SVG/1.1/DTD/svg11.dtd">
<!-- Creator: CorelDRAW 2021 (64 Bit) -->
<svg xmlns="http://www.w3.org/2000/svg" xml:space="preserve" width="234mm" height="210mm" version="1.1" style="shape-rendering:geometricPrecision; text-rendering:geometricPrecision; image-rendering:optimizeQuality; fill-rule:evenodd; clip-rule:evenodd"
viewBox="0 0 23400 21000"
 xmlns:xlink="http://www.w3.org/1999/xlink"
 xmlns:xodm="http://www.corel.com/coreldraw/odm/2003">
 <defs>
  <style type="text/css">
   <![CDATA[
    .str0 {stroke:#282829;stroke-width:105.83;stroke-linecap:round;stroke-linejoin:round;stroke-miterlimit:22.9256}
    .fil0 {fill:black}
    .fil14 {fill:black}
    .fil7 {fill:#010007}
    .fil8 {fill:#060910}
    .fil6 {fill:#161817}
    .fil4 {fill:#232227}
    .fil11 {fill:#262729}
    .fil9 {fill:#FBDAB7}
    .fil3 {fill:#FBDEBC}
    .fil15 {fill:white;fill-rule:nonzero}
    .fil2 {fill:url(#id0)}
    .fil12 {fill:url(#id1)}
    .fil10 {fill:url(#id2)}
    .fil5 {fill:url(#id3)}
    .fil13 {fill:url(#id4)}
    .fil1 {fill:url(#id5)}
   ]]>
  </style>
  <linearGradient id="id0" gradientUnits="userSpaceOnUse" x1="17404.03" y1="7243.63" x2="22021.87" y2="7243.63">
   <stop offset="0" style="stop-opacity:1; stop-color:#222423"/>
   <stop offset="1" style="stop-opacity:1; stop-color:#3B3B39"/>
  </linearGradient>
  <linearGradient id="id1" gradientUnits="userSpaceOnUse" x1="11951.62" y1="11373.8" x2="17408.2" y2="16889.48">
   <stop offset="0" style="stop-opacity:1; stop-color:#161618"/>
   <stop offset="1" style="stop-opacity:1; stop-color:#525252"/>
  </linearGradient>
  <linearGradient id="id2" gradientUnits="userSpaceOnUse" x1="13538.31" y1="17666.52" x2="15126.24" y2="17666.52">
   <stop offset="0" style="stop-opacity:1; stop-color:#151517"/>
   <stop offset="1" style="stop-opacity:1; stop-color:#1A171E"/>
  </linearGradient>
  <linearGradient id="id3" gradientUnits="userSpaceOnUse" x1="8717.87" y1="4325.47" x2="17451.6" y2="4325.47">
   <stop offset="0" style="stop-opacity:1; stop-color:#1F1F1F"/>
   <stop offset="1" style="stop-opacity:1; stop-color:#4D4C4A"/>
  </linearGradient>
  <linearGradient id="id4" gradientUnits="userSpaceOnUse" x1="680.57" y1="16898.37" x2="17053.94" y2="16898.37">
   <stop offset="0" style="stop-opacity:1; stop-color:#FEFEFE"/>
   <stop offset="1" style="stop-opacity:1; stop-color:#D1D1D1"/>
  </linearGradient>
  <linearGradient id="id5" gradientUnits="userSpaceOnUse" x1="17462.85" y1="4606.34" x2="21644.55" y2="3553.78">
   <stop offset="0" style="stop-opacity:1; stop-color:#121210"/>
   <stop offset="1" style="stop-opacity:1; stop-color:#303030"/>
  </linearGradient>
 </defs>
 <g id="Camada_x0020_1">
  <metadata id="CorelCorpID_0Corel-Layer"/>
  <g id="_2597237564304">
   <path class="fil0" d="M15840.56 10210.96c-2433.17,2321.33 -4830.15,1424.8 -5164.93,1289.79 -220.97,982.04 -93.45,1834.8 -93.45,1834.8l-6.74 6541.09 6478.5 129.27c1288.42,-468.08 632.91,-2226.32 632.91,-2226.32 1198.29,-1198.26 1022.49,-2195.81 1022.49,-2195.81 204.88,-203.94 123.89,-681.93 119.95,-704.33 -361.58,-1807.86 -1515.47,-3557.27 -2988.73,-4668.49z"/>
   <g>
    <g>
     <path class="fil0" d="M21624.1 3466.24c0,0 157.81,-2184.8 157.81,-2184.8 -1209.72,210.42 -2350.3,546.21 -3133.94,1048.31 -521.12,333.89 -871.39,754.63 -1026.97,1212.97 -224.51,661.45 123.96,1494.02 99.79,2016.12 -31.23,673.88 -272.65,727.64 -272.65,727.64 -3.71,111.44 -10.4,299.27 -19.97,408.97 156.21,13.71 522.87,52.68 735.5,-55.45 267.82,-136.24 406.77,-500.53 486.96,-774.06 186.32,-635.66 -88.33,-1570.7 277.65,-1900.31 666.59,-600.29 2077.08,-451.59 2695.82,-499.39z"/>
     <path class="fil1" d="M21555.82 3351.72c0,0 123.41,-1862.6 123.41,-1862.6 -2014.17,350.38 -3544.96,944.24 -3934.67,2092.02 -224.63,661.54 89.41,1475.48 65.19,1997.64 -31.28,673.93 -361.61,735.52 -361.61,735.52 -3.71,111.45 -10.4,222.06 -19.97,331.76 156.21,13.71 487.16,66.45 699.82,-41.74 267.87,-136.27 411.43,-464.76 491.64,-738.38 186.41,-635.68 -105.18,-1618.38 260.91,-1948.07 666.68,-600.4 2056.54,-518.36 2675.28,-566.15z"/>
    </g>
    <g>
     <path class="fil0" d="M17388.26 6990.35c-0.97,10.4 275.31,359.9 767.52,471.31 880.71,199.34 2160.67,-135.64 2291.54,912.56 0,0 1687.48,-1141.87 1687.48,-1141.87 0,0 -699.62,-904.36 -1887.39,-1018.43 -534.56,-51.34 -1081.88,286.84 -1963.42,463.85 -284.58,57.13 -688.61,-82.16 -843.62,-186.69 -0.63,-0.03 -6.29,73.56 -13.2,166.49 -10.08,135.72 -35.91,308.81 -38.91,332.78z"/>
     <path class="fil2" d="M17404.09 6873.14c-0.97,10.4 259.42,397.06 751.69,508.53 880.77,199.4 2249.2,-242.2 2380.07,806 0,0 1486.02,-955.32 1486.02,-955.32 0,0 -586.66,-813.55 -1774.46,-927.67 -534.61,-51.37 -1052.57,300.61 -1934.13,477.64 -346.64,69.62 -680.28,-116.86 -879.17,-216.97 -6.65,76.14 -20.62,232.54 -30.02,307.79z"/>
    </g>
    <g>
     <ellipse class="fil3 str0" cx="12258.34" cy="6106.58" rx="5193.26" ry="5643.03"/>
     <path class="fil0" d="M17078.48 8210.95c-1724.25,2672.09 -4160.19,1467.11 -6043.5,1658.54 -1069.85,108.76 -1595.41,977.32 -1595.41,977.32 800.81,548.58 1240.54,731.39 2818.75,731.39 1578.21,0 4024.9,-1358.81 4820.16,-3367.25z"/>
     <path class="fil4" d="M17031 8334.88c-1724.25,2672.08 -3923.05,1486.11 -5806.39,1677.62 -1069.94,108.79 -1732.04,871.11 -1732.04,871.11 800.8,548.58 1749.15,865.99 2765.75,865.99 2139.85,0 3977.42,-1406.29 4772.68,-3414.72z"/>
     <path class="fil0" d="M10476.89 8382.87c2685.51,-513.3 4863.29,-2918.02 6772.82,-712.87 719.3,-2799.15 -1960.27,-6949.34 -4991.39,-6949.34 -573.12,0 -1124.56,100.87 -1640.11,287.19 -2526.25,913.01 -3843.52,4142.27 -3366.87,6601.82 18.45,95.33 52.99,182.23 76.87,275.13 0,0 622.91,311.04 1507.08,469.36 516.35,92.45 1097.36,132.73 1641.6,28.71z"/>
     <g>
      <path class="fil5" d="M10476.89 8125.77c2685.59,-513.5 4874.31,-2703.23 6783.85,-498.08 124.35,-483.93 190.86,-994.09 190.86,-1521.13 0,-3116.53 -2325.14,-5643.01 -5193.28,-5643.01 -573.12,0 -1124.56,100.87 -1640.11,287.19 0,0 -2458.23,2364.21 -1782.92,7346.32 516.35,92.44 1097.16,132.81 1641.6,28.71z"/>
      <path class="fil6" d="M8835.29 8097.06c-675.31,-4982.11 1782.92,-7346.32 1782.92,-7346.32 -2064.4,746.09 -3553.13,2862.06 -3553.13,5355.82 0,527.04 66.5,1037.2 190.86,1521.13 0,0 695.18,311.04 1579.35,469.37z"/>
     </g>
     <g>
      <path class="fil7" d="M8986.75 9348.48c350.35,574.89 1209.32,357.38 1297.28,-47.19 13.79,-63.42 19.11,-194.83 19.22,-299.22 -300.61,-82.47 -754.01,-181.86 -1335.87,-236.94 0,136.24 -15.08,367.55 -9.45,474.05 0.77,14.46 -6.37,51.59 28.82,109.3z"/>
      <path class="fil7" d="M8967.38 8765.13c581.86,55.08 1035.26,154.47 1335.87,236.94 275.68,75.65 422.89,137.07 422.89,137.07 -875.14,-836.66 -2173.39,-403.89 -2173.39,-403.89 144.61,7.23 282.91,17.4 414.63,29.88z"/>
     </g>
     <g>
      <path class="fil8" d="M13935.17 8368.53c35.68,118.07 86.48,265.02 123.7,332.13 237.4,427.94 1283.74,381.43 1484.39,-388.63 20.2,-77.34 -0.57,-116.93 -4.6,-133.53 -29.93,-122.44 -125.81,-379.15 -172.23,-533.35 -639.82,260.59 -1119.13,527.55 -1431.26,723.38z"/>
      <path class="fil8" d="M13935.17 8368.53c312.13,-195.83 791.44,-462.79 1431.26,-723.38 144.84,-58.99 297.9,-117.67 459.11,-175.09 0,0 -1616.86,-47.48 -2322.31,1197.66 0,0 145.7,-119.67 431.94,-299.19z"/>
     </g>
     <g>
      <path class="fil9" d="M17008.74 18094.52c0,0 -1854.68,-1186.32 -2578.72,161.52 0,0 -211.66,434.42 122.52,857.7 0,0 389.89,512.42 1403.55,-55.67l467.85 -378.75c0,0 735.18,-22.28 584.8,-584.8z"/>
      <path class="fil10" d="M14065.56 18257.41c131.86,-564.07 798.46,-813.12 798.46,-813.12 1025.54,-534.75 -1288.05,-330.21 -1288.05,-330.21 -204.15,587.15 489.59,1143.33 489.59,1143.33z"/>
      <path class="fil11" d="M17178.66 18119.66c21.97,834.96 -676.76,871.56 -676.76,871.56 -356.46,55.68 -423.28,200.51 -423.28,200.51l-66.82 623.8 1236.43 0c824.28,-655.05 389.88,-1826.83 389.88,-1826.83 -192.43,-299.41 -459.45,130.96 -459.45,130.96z"/>
      <path class="fil0" d="M13658.21 14583.01c846.66,852.82 1748.7,1551.64 1748.7,1551.64 -742.81,-722.39 -1245.34,-1353.53 -1661.6,-1829.38 -523.32,-598.26 -880.33,-981.57 -1065.88,-1334.01 -298.61,-567.29 -263.07,-1022.09 -261.73,-1037.94 -399.4,764.58 383.46,1786.41 1240.51,2649.69z"/>
      <path class="fil12" d="M15973.55 16154.33c-254.65,171.92 -783.07,1235.08 -783.07,1235.08 732.13,-197.34 1927.62,519.33 1927.62,519.33 642.97,-222.8 1831.89,-2395.01 1283.94,-2018.63 -547.96,376.38 -980.44,472.76 -980.44,472.76 1044.6,-571.78 1224.06,-824.11 1238.11,-1051.31 10.83,-175.09 -50.39,-389.52 -50.39,-389.52 -545.18,-2862.2 -2932.33,-4567.5 -2932.33,-4567.5 -913.42,868.65 -2109.45,1395.06 -3418.67,1395.06 -475.79,0 -936.64,-69.53 -1374.41,-199.77 -261.1,356.64 -169.43,1787.04 -169.43,1787.04l539.67 3682.74c0,0 2215.66,-180.35 2325.5,-173.03 109.84,7.31 1625.77,36.62 1625.77,36.62 424.75,-981.32 666.43,-446.74 725.02,-1127.79 58.59,-681.04 -594.09,-2900.28 -594.09,-2900.28 896.53,1178.32 783.8,3537.77 783.8,3537.77 -14.48,-371.04 -146.6,-238.57 -146.6,-238.57zm-3294.12 -3183.07c185.55,352.44 542.56,735.75 1065.88,1334.01 416.26,475.85 918.79,1106.99 1661.6,1829.38 0,0 -902.04,-698.82 -1748.7,-1551.64 -857.05,-863.28 -1639.91,-1885.11 -1240.51,-2649.69 -1.34,15.85 -36.88,470.65 261.73,1037.94z"/>
     </g>
    </g>
   </g>
   <polygon class="fil0" points="17195.98,20529.09 17250.97,18979.93 14534.23,18956.57 12095.54,13242.19 364.21,13318.1 3381.59,20503.89 "/>
   <polygon class="fil13" points="17053.94,20387.08 17053.94,19176.96 14409.62,19176.96 11928.08,13409.66 680.57,13539.29 3570.42,20356.4 "/>
   <g>
    <path class="fil0" d="M21580.28 8201.58c1952.44,6851.7 -3329.77,10225.15 -3329.77,10225.15 229.43,545.86 0,866.9 0,866.9 6653.93,-4385.53 3992.19,-11527.07 3992.19,-11527.07l-662.42 435.02z"/>
    <path class="fil0" d="M20269.12 5793.75c630.25,-13 1033.11,233.91 1033.11,233.91 -391.69,-872.57 -1598.38,-1916.76 -1598.38,-1916.76l-636.76 337.86c597.77,376.87 1202.03,1344.99 1202.03,1344.99z"/>
    <path class="fil0" d="M17266.45 3209.68c115.5,-256.31 156.38,-387.97 408.43,-490.9 15.51,-6.34 -294.33,-200.95 -1169.38,-586.78 359.61,524.16 755.87,1088.96 760.95,1077.68z"/>
    <path class="fil0" d="M3661.38 13021l748.92 0c-835.59,-5272.04 2347.56,-8057.28 2347.56,-8057.28 -39.79,-755.98 198.95,-1193.66 198.95,-1193.66 -4607.68,3627.29 -3295.43,9250.94 -3295.43,9250.94z"/>
   </g>
   <g>
    <circle class="fil14" cx="7648.22" cy="16995.67" r="1287.31"/>
    <path class="fil15" d="M6649.53 17095.4c170.9,60.82 292.06,115.27 363.95,163.59 71.66,48.33 107.73,99.48 107.73,153.46 0,19.33 -4.48,40.54 -13.2,64.11 -84.63,-97.11 -235.02,-189.52 -450.94,-276.97l-67.65 -27.58c-54.69,-22.16 -89.34,-38.66 -103.72,-49.27 -14.62,-10.84 -30.65,-32.53 -48.09,-64.58 155.58,-39.13 313.04,-94.29 472.15,-165.25 159.35,-70.71 283.34,-141.19 372.21,-211.2 -4.95,93.34 -37.24,158.17 -96.65,194 -121.16,72.36 -299.6,145.44 -535.79,219.69z"/>
    <path id="_1" class="fil15" d="M7447.45 17702.86c-72.84,-25.22 -109.14,-58.22 -109.14,-98.77 0,-69.54 82.97,-267.78 248.68,-594.49l66.95 -131.3c131.53,-259.3 223.7,-422.42 275.8,-489.36 52.33,-66.95 113.38,-100.42 183.39,-100.42 15.32,0 31.82,2.12 49.74,6.13 -138.14,114.32 -299.84,362.78 -485.36,745.83l-29.7 62.23c-135.07,279.57 -202.49,468.85 -202.49,568.33 0,8.72 0.71,19.33 2.13,31.82z"/>
    <path id="_2" class="fil15" d="M8638.56 17083.85c-95.71,-39.6 -189.53,-85.33 -281.46,-137.43 -60.34,-33.23 -100.89,-62.46 -121.87,-87.69 -20.98,-25.45 -31.35,-56.81 -31.35,-94.76 0,-24.28 2.12,-49.03 6.84,-73.78 52.33,63.88 140.25,131.06 263.3,201.31 123.05,70.25 251.28,126.35 384.7,168.07 -24.75,39.6 -80.85,75.9 -168.3,109.14l-74.49 28.99c-14.38,5.43 -50.21,19.33 -107.73,41.49 -199.66,74.96 -359.71,156.05 -479.7,243.03 7.31,-88.39 41.49,-152.51 102.07,-192.35 60.82,-39.84 230.07,-108.43 507.99,-206.02z"/>
   </g>
  </g>
 </g>
</svg>
